{"title":"The Maze Runner 2014 HDCAMRip XviD MP3 Idiocracy","uid":11554894,"size":1072932864,"categoryP":"video","categoryS":"movies","magnet":"?xt=urn:btih:7e543030e900122588635feed82b7afe1b263067&amp;dn=The+Maze+Runner+2014+HDCAMRip+XviD+MP3+Idiocracy&amp;tr=udp%3A%2F%2Ftracker.openbittorrent.com%3A80&amp;tr=udp%3A%2F%2Fopen.demonii.com%3A1337&amp;tr=udp%3A%2F%2Ftracker.coppersurfer.tk%3A6969&amp;tr=udp%3A%2F%2Fexodus.desync.com%3A6969","seeders":1,"leechers":0,"uploader":"Satafakap","files":-1,"time":1416810439,"description":"Synopsis / Plot\n\nThomas is deposited in a community of boys after his memory is erased, soon learning they're all trapped in a maze that will require him to join forces with fellow &quot;runners&quot; for a shot at escape.\n\nDirector: Wes Ball\nWriters: Noah Oppenheim (screenplay), Grant Pierce Myers (screenplay)\nStars: Dylan O'Brien, Kaya Scodelario, Will Poulter  \n &lt;a href=&quot;\nhttp://www.imdb.com/title/tt1790864/&quot; rel=&quot;nofollow&quot; target=&quot;_NEW&quot;&gt;\nhttp://www.imdb.com/title/tt1790864/&lt;/a&gt;\n\nGeneral\n\nComplete name          : The.Maze.Runner.2014.HDCAMRip.XviD.MP3-Idiocracy.avi\nFormat                 : AVI\nFormat/Info            : Audio Video Interleave\nFile size              : 1 001 MiB\nDuration               : 1h 53mn\nOverall bit rate       : 1 233 Kbps\nWriting application    : VirtualDubMod 1.5.10.3 | www.virtualdub-fr.org\nWriting library        : VirtualDubMod build 2550/release\nSource                 : The Maze Runner 2014 720p TC HDCAM x264-JYK\nSample                 : Yes\n\nVideo\n\nID                                       : 0\nFormat                                   : MPEG-4 Visual\nFormat profile                           : Advanced Simple@L5\nFormat settings, BVOP                    : 2\nFormat settings, QPel                    : No\nFormat settings, GMC                     : No warppoints\nFormat settings, Matrix                  : Default (H.263)\nCodec ID                                 : XVID\nCodec ID/Hint                            : XviD\nDuration                                 : 1h 53mn\nBit rate                                 : 1 094 Kbps\nWidth                                    : 640 pixels\nHeight                                   : 284 pixels\nDisplay aspect ratio                     : 2.25:1\nFrame rate                               : 29.970 fps\nColor space                              : YUV\nChroma subsampling                       : 4:2:0\nBit depth                                : 8 bits\nScan type                                : Progressive\nCompression mode                         : Lossy\nBits/(Pixel*Frame)                       : 0.201\nStream size                              : 888 MiB (89%)\nWriting library                          : XviD 1.2.1 (UTC 2008-12-04)\n\nAudio\n\nID                                       : 1\nFormat                                   : MPEG Audio\nFormat version                           : Version 1\nFormat profile                           : Layer 3\nCodec ID                                 : 55\nCodec ID/Hint                            : MP3\nDuration                                 : 1h 53mn\nBit rate mode                            : Constant\nBit rate                                 : 128 Kbps\nChannel(s)                               : 2 channels\nSampling rate                            : 48.0 KHz\nCompression mode                         : Lossy\nStream size                              : 104 MiB (10%)\nAlignment                                : Aligned on interleaves\nInterleave, duration                     : 33 ms (1.00 video frame)\nInterleave, preload duration             : 504 ms\nWriting library                          : LAME3.99r\nEncoding settings                        : -m s -V 4 -q 0 -lowpass 17 -b 128\n\nScreenshots:\n &lt;a href=&quot;\nhttp://i.imgur.com/47alC7h.jpg&quot; rel=&quot;nofollow&quot; target=&quot;_NEW&quot;&gt;\nhttp://i.imgur.com/47alC7h.jpg&lt;/a&gt;\n &lt;a href=&quot;\nhttp://i.imgur.com/X9ejKKg.jpg&quot; rel=&quot;nofollow&quot; target=&quot;_NEW&quot;&gt;\nhttp://i.imgur.com/X9ejKKg.jpg&lt;/a&gt;\n &lt;a href=&quot;\nhttp://i.imgur.com/UwPaxto.jpg&quot; rel=&quot;nofollow&quot; target=&quot;_NEW&quot;&gt;\nhttp://i.imgur.com/UwPaxto.jpg&lt;/a&gt;\n &lt;a href=&quot;\nhttp://i.imgur.com/Yj2algo.jpg&quot; rel=&quot;nofollow&quot; target=&quot;_NEW&quot;&gt;\nhttp://i.imgur.com/Yj2algo.jpg&lt;/a&gt;\n &lt;a href=&quot;\nhttp://i.imgur.com/rJQo4Ta.jpg&quot; rel=&quot;nofollow&quot; target=&quot;_NEW&quot;&gt;\nhttp://i.imgur.com/rJQo4Ta.jpg&lt;/a&gt;","torrent":{"xt":"urn:btih:7e543030e900122588635feed82b7afe1b263067","amp;dn":"The+Maze+Runner+2014+HDCAMRip+XviD+MP3+Idiocracy","amp;tr":["udp%3A%2F%2Ftracker.openbittorrent.com%3A80","udp%3A%2F%2Fopen.demonii.com%3A1337","udp%3A%2F%2Ftracker.coppersurfer.tk%3A6969","udp%3A%2F%2Fexodus.desync.com%3A6969"],"infoHash":"7e543030e900122588635feed82b7afe1b263067","infoHashBuffer":{"type":"Buffer","data":[126,84,48,48,233,0,18,37,136,99,95,238,216,43,122,254,27,38,48,103]},"announce":[],"urlList":[]}}